<svg width="50" height="50" viewBox="0 0 50 50" fill="none" xmlns="http://www.w3.org/2000/svg">
  <rect width="50" height="50" rx="10" fill="#00005B"/>
  <path d="M20 15L15 35H18.5L19.5 31H24.5L25.5 35H29L24 15H20ZM20.5 28L22 21L23.5 28H20.5Z" fill="#9999FF"/>
  <path d="M30 25C30 22.239 32.239 20 35 20C36.38 20 37.62 20.56 38.536 21.464L36.828 23.172C36.348 22.692 35.708 22.4 35 22.4C33.567 22.4 32.4 23.567 32.4 25V27C32.4 28.433 33.567 29.6 35 29.6C35.708 29.6 36.348 29.308 36.828 28.828L38.536 30.536C37.62 31.44 36.38 32 35 32C32.239 32 30 29.761 30 27V25Z" fill="#9999FF"/>
  <path d="M30 32H38V34H30V32Z" fill="#9999FF"/>
</svg>
