<svg width="50" height="50" viewBox="0 0 50 50" fill="none" xmlns="http://www.w3.org/2000/svg">
  <rect width="50" height="50" rx="10" fill="#00C4CC"/>
  <path d="M25 12C17.82 12 12 17.82 12 25C12 32.18 17.82 38 25 38C32.18 38 38 32.18 38 25C38 17.82 32.18 12 25 12ZM28.5 30C27.5 31 26 31.5 24.5 31C23 30.5 22 29.5 21.5 28C21 26.5 21 25 22 24C23 23 24.5 22.5 26 23C26.5 23.2 27 23.5 27.3 23.8L25.5 25.6C25.2 25.3 24.8 25.2 24.5 25.3C24 25.4 23.6 25.8 23.5 26.3C23.4 26.8 23.5 27.3 23.8 27.6C24.1 27.9 24.6 28 25.1 27.9C25.6 27.8 26 27.4 26.1 26.9V26.5H24.5V24.5H28.5V27C28.5 28 28.3 29 28.5 30Z" fill="white"/>
</svg>
