<svg width="50" height="50" viewBox="0 0 50 50" fill="none" xmlns="http://www.w3.org/2000/svg">
  <rect width="50" height="50" rx="10" fill="#1E1E1E"/>
  <path d="M19 15C19 12.7909 20.7909 11 23 11H27V19H23C20.7909 19 19 17.2091 19 15Z" fill="#F24E1E"/>
  <path d="M27 11H31C33.2091 11 35 12.7909 35 15C35 17.2091 33.2091 19 31 19H27V11Z" fill="#FF7262"/>
  <path d="M27 23C27 20.7909 28.7909 19 31 19C33.2091 19 35 20.7909 35 23C35 25.2091 33.2091 27 31 27C28.7909 27 27 25.2091 27 23Z" fill="#A259FF"/>
  <path d="M19 23C19 20.7909 20.7909 19 23 19H27V27H23C20.7909 27 19 25.2091 19 23Z" fill="#1ABCFE"/>
  <path d="M19 31C19 28.7909 20.7909 27 23 27H27V31C27 33.2091 25.2091 35 23 35C20.7909 35 19 33.2091 19 31Z" fill="#0ACF83"/>
</svg>
