<svg width="50" height="50" viewBox="0 0 50 50" fill="none" xmlns="http://www.w3.org/2000/svg">
  <rect width="50" height="50" rx="10" fill="#001E36"/>
  <path d="M15 15H18V32H27V35H15V15Z" fill="#31A8FF"/>
  <path d="M28 25C28 22.239 30.239 20 33 20C34.38 20 35.62 20.56 36.536 21.464L34.828 23.172C34.348 22.692 33.708 22.4 33 22.4C31.567 22.4 30.4 23.567 30.4 25V27C30.4 28.433 31.567 29.6 33 29.6C33.708 29.6 34.348 29.308 34.828 28.828L36.536 30.536C35.62 31.44 34.38 32 33 32C30.239 32 28 29.761 28 27V25Z" fill="#31A8FF"/>
</svg>
