<svg width="50" height="50" viewBox="0 0 50 50" fill="none" xmlns="http://www.w3.org/2000/svg">
  <rect width="50" height="50" rx="10" fill="#001E36"/>
  <path d="M15 15H20C23.866 15 27 18.134 27 22C27 25.866 23.866 29 20 29H18V35H15V15ZM18 26H20C22.2091 26 24 24.2091 24 22C24 19.7909 22.2091 18 20 18H18V26Z" fill="#31A8FF"/>
  <path d="M28 28.5C28 26.567 29.567 25 31.5 25C32.163 25 32.784 25.163 33.329 25.449L32.329 27.949C32.063 27.763 31.747 27.65 31.4 27.65C30.85 27.65 30.4 28.1 30.4 28.65C30.4 29.2 30.85 29.65 31.4 29.65C31.747 29.65 32.063 29.537 32.329 29.351L33.329 31.851C32.784 32.137 32.163 32.3 31.5 32.3C29.567 32.3 28 30.733 28 28.8V28.5Z" fill="#31A8FF"/>
  <path d="M33 28C33 26.343 34.343 25 36 25C37.657 25 39 26.343 39 28V29C39 30.657 37.657 32 36 32C34.343 32 33 30.657 33 29V28ZM35.5 28C35.5 27.724 35.724 27.5 36 27.5C36.276 27.5 36.5 27.724 36.5 28V29C36.5 29.276 36.276 29.5 36 29.5C35.724 29.5 35.5 29.276 35.5 29V28Z" fill="#31A8FF"/>
</svg>
