<svg width="50" height="50" viewBox="0 0 50 50" fill="none" xmlns="http://www.w3.org/2000/svg">
  <rect width="50" height="50" rx="10" fill="#00005B"/>
  <path d="M15 15H20C23.866 15 27 18.134 27 22C27 25.866 23.866 29 20 29H18V35H15V15ZM18 26H20C22.2091 26 24 24.2091 24 22C24 19.7909 22.2091 18 20 18H18V26Z" fill="#9999FF"/>
  <path d="M28 25C28 22.239 30.239 20 33 20C34.657 20 36.105 20.895 36.895 22.236L34.605 23.764C34.21 23.29 33.635 23 33 23C31.895 23 31 23.895 31 25V27C31 28.105 31.895 29 33 29C33.635 29 34.21 28.71 34.605 28.236L36.895 29.764C36.105 31.105 34.657 32 33 32C30.239 32 28 29.761 28 27V25Z" fill="#9999FF"/>
</svg>
